<mxfile host="app.diagrams.net" modified="2024-03-18T08:55:14.018Z" agent="Mozilla/5.0 (Windows NT 10.0; Win64; x64) AppleWebKit/537.36 (KHTML, like Gecko) Chrome/122.0.0.0 Safari/537.36" etag="8J5mm_lPWgNejPkOwHWk" version="24.0.7" type="device">
  <diagram name="Trang-1" id="1ZNAdaQyqiJHpsvigI3-">
    <mxGraphModel dx="2022" dy="1613" grid="1" gridSize="10" guides="1" tooltips="1" connect="1" arrows="1" fold="1" page="1" pageScale="1" pageWidth="827" pageHeight="1169" math="0" shadow="0">
      <root>
        <mxCell id="0" />
        <mxCell id="1" parent="0" />
        <mxCell id="hjZI1vOrOJuIzHGpSWTf-2" value="Nhân viên" style="rounded=0;whiteSpace=wrap;html=1;" parent="1" vertex="1">
          <mxGeometry x="115" y="120" width="120" height="60" as="geometry" />
        </mxCell>
        <mxCell id="hjZI1vOrOJuIzHGpSWTf-3" value="&lt;u&gt;Mã nhân viên&lt;/u&gt;" style="ellipse;whiteSpace=wrap;html=1;" parent="1" vertex="1">
          <mxGeometry x="30" y="12.5" width="90" height="60" as="geometry" />
        </mxCell>
        <mxCell id="hjZI1vOrOJuIzHGpSWTf-5" value="Họ nhân viên" style="ellipse;whiteSpace=wrap;html=1;" parent="1" vertex="1">
          <mxGeometry x="140" y="30" width="110" height="50" as="geometry" />
        </mxCell>
        <mxCell id="hjZI1vOrOJuIzHGpSWTf-6" value="Tên nhân viên" style="ellipse;whiteSpace=wrap;html=1;" parent="1" vertex="1">
          <mxGeometry x="-20" y="90" width="90" height="50" as="geometry" />
        </mxCell>
        <mxCell id="hjZI1vOrOJuIzHGpSWTf-7" value="&lt;u&gt;Mã bưu điện&lt;/u&gt;" style="ellipse;whiteSpace=wrap;html=1;" parent="1" vertex="1">
          <mxGeometry x="-10" y="160" width="90" height="50" as="geometry" />
        </mxCell>
        <mxCell id="hjZI1vOrOJuIzHGpSWTf-8" value="" style="endArrow=none;html=1;rounded=0;entryX=0.5;entryY=1;entryDx=0;entryDy=0;exitX=0.5;exitY=0;exitDx=0;exitDy=0;" parent="1" source="hjZI1vOrOJuIzHGpSWTf-2" target="hjZI1vOrOJuIzHGpSWTf-5" edge="1">
          <mxGeometry width="50" height="50" relative="1" as="geometry">
            <mxPoint x="260" y="180" as="sourcePoint" />
            <mxPoint x="310" y="130" as="targetPoint" />
          </mxGeometry>
        </mxCell>
        <mxCell id="hjZI1vOrOJuIzHGpSWTf-9" value="" style="endArrow=none;html=1;rounded=0;entryX=0.5;entryY=1;entryDx=0;entryDy=0;exitX=0.25;exitY=0;exitDx=0;exitDy=0;" parent="1" source="hjZI1vOrOJuIzHGpSWTf-2" target="hjZI1vOrOJuIzHGpSWTf-3" edge="1">
          <mxGeometry width="50" height="50" relative="1" as="geometry">
            <mxPoint x="260" y="180" as="sourcePoint" />
            <mxPoint x="310" y="130" as="targetPoint" />
          </mxGeometry>
        </mxCell>
        <mxCell id="hjZI1vOrOJuIzHGpSWTf-10" value="" style="endArrow=none;html=1;rounded=0;entryX=1;entryY=0.5;entryDx=0;entryDy=0;exitX=0;exitY=0.25;exitDx=0;exitDy=0;" parent="1" source="hjZI1vOrOJuIzHGpSWTf-2" target="hjZI1vOrOJuIzHGpSWTf-6" edge="1">
          <mxGeometry width="50" height="50" relative="1" as="geometry">
            <mxPoint x="260" y="180" as="sourcePoint" />
            <mxPoint x="310" y="130" as="targetPoint" />
          </mxGeometry>
        </mxCell>
        <mxCell id="hjZI1vOrOJuIzHGpSWTf-11" value="" style="endArrow=none;html=1;rounded=0;exitX=1;exitY=0.5;exitDx=0;exitDy=0;entryX=0;entryY=0.75;entryDx=0;entryDy=0;" parent="1" source="hjZI1vOrOJuIzHGpSWTf-7" target="hjZI1vOrOJuIzHGpSWTf-2" edge="1">
          <mxGeometry width="50" height="50" relative="1" as="geometry">
            <mxPoint x="260" y="180" as="sourcePoint" />
            <mxPoint x="310" y="130" as="targetPoint" />
          </mxGeometry>
        </mxCell>
        <mxCell id="hjZI1vOrOJuIzHGpSWTf-13" value="Khách hàng" style="rounded=0;whiteSpace=wrap;html=1;" parent="1" vertex="1">
          <mxGeometry x="360" y="112.5" width="120" height="60" as="geometry" />
        </mxCell>
        <mxCell id="hjZI1vOrOJuIzHGpSWTf-14" value="&lt;u&gt;Mã khách hàng&lt;/u&gt;" style="ellipse;whiteSpace=wrap;html=1;" parent="1" vertex="1">
          <mxGeometry x="390" y="-2.5" width="90" height="50" as="geometry" />
        </mxCell>
        <mxCell id="hjZI1vOrOJuIzHGpSWTf-15" value="Họ kh" style="ellipse;whiteSpace=wrap;html=1;" parent="1" vertex="1">
          <mxGeometry x="500" y="12.5" width="70" height="40" as="geometry" />
        </mxCell>
        <mxCell id="hjZI1vOrOJuIzHGpSWTf-16" value="Tên kh" style="ellipse;whiteSpace=wrap;html=1;" parent="1" vertex="1">
          <mxGeometry x="540" y="62.5" width="80" height="40" as="geometry" />
        </mxCell>
        <mxCell id="hjZI1vOrOJuIzHGpSWTf-17" value="&lt;u&gt;Mã bưu điện&lt;/u&gt;" style="ellipse;whiteSpace=wrap;html=1;" parent="1" vertex="1">
          <mxGeometry x="540" y="152.5" width="80" height="40" as="geometry" />
        </mxCell>
        <mxCell id="hjZI1vOrOJuIzHGpSWTf-18" value="" style="endArrow=none;html=1;rounded=0;entryX=0.5;entryY=1;entryDx=0;entryDy=0;exitX=0.25;exitY=0;exitDx=0;exitDy=0;" parent="1" source="hjZI1vOrOJuIzHGpSWTf-13" target="hjZI1vOrOJuIzHGpSWTf-14" edge="1">
          <mxGeometry width="50" height="50" relative="1" as="geometry">
            <mxPoint x="370" y="182.5" as="sourcePoint" />
            <mxPoint x="420" y="132.5" as="targetPoint" />
          </mxGeometry>
        </mxCell>
        <mxCell id="hjZI1vOrOJuIzHGpSWTf-19" value="" style="endArrow=none;html=1;rounded=0;entryX=0.5;entryY=1;entryDx=0;entryDy=0;exitX=0.75;exitY=0;exitDx=0;exitDy=0;" parent="1" source="hjZI1vOrOJuIzHGpSWTf-13" target="hjZI1vOrOJuIzHGpSWTf-15" edge="1">
          <mxGeometry width="50" height="50" relative="1" as="geometry">
            <mxPoint x="370" y="182.5" as="sourcePoint" />
            <mxPoint x="420" y="132.5" as="targetPoint" />
          </mxGeometry>
        </mxCell>
        <mxCell id="hjZI1vOrOJuIzHGpSWTf-20" value="" style="endArrow=none;html=1;rounded=0;entryX=0;entryY=0.5;entryDx=0;entryDy=0;exitX=1;exitY=0.25;exitDx=0;exitDy=0;" parent="1" source="hjZI1vOrOJuIzHGpSWTf-13" target="hjZI1vOrOJuIzHGpSWTf-16" edge="1">
          <mxGeometry width="50" height="50" relative="1" as="geometry">
            <mxPoint x="370" y="182.5" as="sourcePoint" />
            <mxPoint x="420" y="132.5" as="targetPoint" />
          </mxGeometry>
        </mxCell>
        <mxCell id="hjZI1vOrOJuIzHGpSWTf-21" value="" style="endArrow=none;html=1;rounded=0;entryX=0;entryY=0.5;entryDx=0;entryDy=0;exitX=1;exitY=0.75;exitDx=0;exitDy=0;" parent="1" source="hjZI1vOrOJuIzHGpSWTf-13" target="hjZI1vOrOJuIzHGpSWTf-17" edge="1">
          <mxGeometry width="50" height="50" relative="1" as="geometry">
            <mxPoint x="370" y="182.5" as="sourcePoint" />
            <mxPoint x="420" y="132.5" as="targetPoint" />
          </mxGeometry>
        </mxCell>
        <mxCell id="hjZI1vOrOJuIzHGpSWTf-23" value="&lt;u&gt;Mã sản phẩm&lt;/u&gt;" style="ellipse;whiteSpace=wrap;html=1;" parent="1" vertex="1">
          <mxGeometry x="-50" y="315" width="80" height="50" as="geometry" />
        </mxCell>
        <mxCell id="hjZI1vOrOJuIzHGpSWTf-24" value="Tên sản phẩm" style="ellipse;whiteSpace=wrap;html=1;" parent="1" vertex="1">
          <mxGeometry x="-15" y="380" width="80" height="50" as="geometry" />
        </mxCell>
        <mxCell id="hjZI1vOrOJuIzHGpSWTf-25" value="Giá" style="ellipse;whiteSpace=wrap;html=1;" parent="1" vertex="1">
          <mxGeometry x="80" y="410" width="70" height="40" as="geometry" />
        </mxCell>
        <mxCell id="hjZI1vOrOJuIzHGpSWTf-26" value="SL còn lại" style="ellipse;whiteSpace=wrap;html=1;" parent="1" vertex="1">
          <mxGeometry x="155" y="410" width="80" height="40" as="geometry" />
        </mxCell>
        <mxCell id="hjZI1vOrOJuIzHGpSWTf-27" value="" style="endArrow=none;html=1;rounded=0;exitX=1;exitY=0.5;exitDx=0;exitDy=0;entryX=0;entryY=0.5;entryDx=0;entryDy=0;" parent="1" source="hjZI1vOrOJuIzHGpSWTf-23" target="SLK3B0IBfcJ1VqEoQyuU-12" edge="1">
          <mxGeometry width="50" height="50" relative="1" as="geometry">
            <mxPoint x="50" y="380" as="sourcePoint" />
            <mxPoint x="140" y="360" as="targetPoint" />
          </mxGeometry>
        </mxCell>
        <mxCell id="hjZI1vOrOJuIzHGpSWTf-28" value="" style="endArrow=none;html=1;rounded=0;exitX=0.5;exitY=0;exitDx=0;exitDy=0;entryX=0;entryY=1;entryDx=0;entryDy=0;" parent="1" source="hjZI1vOrOJuIzHGpSWTf-24" target="SLK3B0IBfcJ1VqEoQyuU-12" edge="1">
          <mxGeometry width="50" height="50" relative="1" as="geometry">
            <mxPoint x="50" y="380" as="sourcePoint" />
            <mxPoint x="170" y="390" as="targetPoint" />
          </mxGeometry>
        </mxCell>
        <mxCell id="hjZI1vOrOJuIzHGpSWTf-29" value="" style="endArrow=none;html=1;rounded=0;entryX=0.5;entryY=0;entryDx=0;entryDy=0;exitX=0.25;exitY=1;exitDx=0;exitDy=0;" parent="1" source="SLK3B0IBfcJ1VqEoQyuU-12" target="hjZI1vOrOJuIzHGpSWTf-25" edge="1">
          <mxGeometry width="50" height="50" relative="1" as="geometry">
            <mxPoint x="230" y="390" as="sourcePoint" />
            <mxPoint x="100" y="330" as="targetPoint" />
          </mxGeometry>
        </mxCell>
        <mxCell id="hjZI1vOrOJuIzHGpSWTf-30" value="" style="endArrow=none;html=1;rounded=0;entryX=0.5;entryY=0;entryDx=0;entryDy=0;exitX=0.5;exitY=1;exitDx=0;exitDy=0;" parent="1" source="SLK3B0IBfcJ1VqEoQyuU-12" target="hjZI1vOrOJuIzHGpSWTf-26" edge="1">
          <mxGeometry width="50" height="50" relative="1" as="geometry">
            <mxPoint x="260" y="390" as="sourcePoint" />
            <mxPoint x="194" y="430" as="targetPoint" />
          </mxGeometry>
        </mxCell>
        <mxCell id="hjZI1vOrOJuIzHGpSWTf-32" value="&lt;u&gt;Mã đơn hàng&lt;/u&gt;" style="ellipse;whiteSpace=wrap;html=1;" parent="1" vertex="1">
          <mxGeometry x="520" y="370" width="80" height="50" as="geometry" />
        </mxCell>
        <mxCell id="SLK3B0IBfcJ1VqEoQyuU-2" value="" style="endArrow=none;html=1;rounded=0;entryX=0.5;entryY=0;entryDx=0;entryDy=0;exitX=0.75;exitY=1;exitDx=0;exitDy=0;" parent="1" source="SLK3B0IBfcJ1VqEoQyuU-11" target="hjZI1vOrOJuIzHGpSWTf-32" edge="1">
          <mxGeometry width="50" height="50" relative="1" as="geometry">
            <mxPoint x="535" y="370" as="sourcePoint" />
            <mxPoint x="300" y="260" as="targetPoint" />
          </mxGeometry>
        </mxCell>
        <mxCell id="SLK3B0IBfcJ1VqEoQyuU-11" value="Đơn hàng" style="rounded=0;whiteSpace=wrap;html=1;" parent="1" vertex="1">
          <mxGeometry x="370" y="290" width="120" height="60" as="geometry" />
        </mxCell>
        <mxCell id="SLK3B0IBfcJ1VqEoQyuU-12" value="Sản phẩm" style="shape=ext;margin=3;double=1;whiteSpace=wrap;html=1;align=center;" parent="1" vertex="1">
          <mxGeometry x="70" y="310" width="120" height="50" as="geometry" />
        </mxCell>
        <mxCell id="SLK3B0IBfcJ1VqEoQyuU-13" value="Thuộc" style="shape=rhombus;double=1;perimeter=rhombusPerimeter;whiteSpace=wrap;html=1;align=center;" parent="1" vertex="1">
          <mxGeometry x="220" y="310" width="120" height="60" as="geometry" />
        </mxCell>
        <mxCell id="SLK3B0IBfcJ1VqEoQyuU-14" value="" style="shape=link;html=1;rounded=0;exitX=1;exitY=0.5;exitDx=0;exitDy=0;entryX=0;entryY=0.5;entryDx=0;entryDy=0;" parent="1" source="SLK3B0IBfcJ1VqEoQyuU-12" target="SLK3B0IBfcJ1VqEoQyuU-13" edge="1">
          <mxGeometry relative="1" as="geometry">
            <mxPoint x="200" y="280" as="sourcePoint" />
            <mxPoint x="360" y="280" as="targetPoint" />
          </mxGeometry>
        </mxCell>
        <mxCell id="SLK3B0IBfcJ1VqEoQyuU-17" value="" style="endArrow=none;html=1;rounded=0;entryX=0;entryY=0.5;entryDx=0;entryDy=0;exitX=1;exitY=0.5;exitDx=0;exitDy=0;" parent="1" source="SLK3B0IBfcJ1VqEoQyuU-13" target="SLK3B0IBfcJ1VqEoQyuU-11" edge="1">
          <mxGeometry width="50" height="50" relative="1" as="geometry">
            <mxPoint x="250" y="310" as="sourcePoint" />
            <mxPoint x="300" y="260" as="targetPoint" />
          </mxGeometry>
        </mxCell>
        <mxCell id="SLK3B0IBfcJ1VqEoQyuU-18" value="Xác thực" style="shape=rhombus;perimeter=rhombusPerimeter;whiteSpace=wrap;html=1;align=center;" parent="1" vertex="1">
          <mxGeometry x="200" y="220" width="96" height="50" as="geometry" />
        </mxCell>
        <mxCell id="SLK3B0IBfcJ1VqEoQyuU-19" value="" style="endArrow=none;html=1;rounded=0;exitX=0.75;exitY=1;exitDx=0;exitDy=0;entryX=0;entryY=0;entryDx=0;entryDy=0;" parent="1" source="hjZI1vOrOJuIzHGpSWTf-2" target="SLK3B0IBfcJ1VqEoQyuU-18" edge="1">
          <mxGeometry relative="1" as="geometry">
            <mxPoint x="220" y="230" as="sourcePoint" />
            <mxPoint x="380" y="230" as="targetPoint" />
          </mxGeometry>
        </mxCell>
        <mxCell id="SLK3B0IBfcJ1VqEoQyuU-20" value="" style="endArrow=none;html=1;rounded=0;entryX=0.25;entryY=0;entryDx=0;entryDy=0;exitX=1;exitY=1;exitDx=0;exitDy=0;" parent="1" source="SLK3B0IBfcJ1VqEoQyuU-18" target="SLK3B0IBfcJ1VqEoQyuU-11" edge="1">
          <mxGeometry relative="1" as="geometry">
            <mxPoint x="220" y="230" as="sourcePoint" />
            <mxPoint x="380" y="230" as="targetPoint" />
          </mxGeometry>
        </mxCell>
        <mxCell id="SLK3B0IBfcJ1VqEoQyuU-21" value="Xác thực" style="shape=rhombus;perimeter=rhombusPerimeter;whiteSpace=wrap;html=1;align=center;" parent="1" vertex="1">
          <mxGeometry x="375" y="200" width="90" height="50" as="geometry" />
        </mxCell>
        <mxCell id="SLK3B0IBfcJ1VqEoQyuU-22" value="" style="endArrow=none;html=1;rounded=0;entryX=0.5;entryY=1;entryDx=0;entryDy=0;exitX=0.5;exitY=0;exitDx=0;exitDy=0;" parent="1" source="SLK3B0IBfcJ1VqEoQyuU-21" target="hjZI1vOrOJuIzHGpSWTf-13" edge="1">
          <mxGeometry width="50" height="50" relative="1" as="geometry">
            <mxPoint x="330" y="310" as="sourcePoint" />
            <mxPoint x="380" y="260" as="targetPoint" />
          </mxGeometry>
        </mxCell>
        <mxCell id="SLK3B0IBfcJ1VqEoQyuU-23" value="" style="endArrow=none;html=1;rounded=0;entryX=0.5;entryY=1;entryDx=0;entryDy=0;exitX=0.5;exitY=0;exitDx=0;exitDy=0;" parent="1" source="SLK3B0IBfcJ1VqEoQyuU-11" target="SLK3B0IBfcJ1VqEoQyuU-21" edge="1">
          <mxGeometry width="50" height="50" relative="1" as="geometry">
            <mxPoint x="330" y="310" as="sourcePoint" />
            <mxPoint x="380" y="260" as="targetPoint" />
          </mxGeometry>
        </mxCell>
        <mxCell id="uMU0NVJH7h4fjkHsvMXy-1" value="Thời gian nhận hàng" style="ellipse;whiteSpace=wrap;html=1;align=center;" parent="1" vertex="1">
          <mxGeometry x="414" y="390" width="100" height="50" as="geometry" />
        </mxCell>
        <mxCell id="uMU0NVJH7h4fjkHsvMXy-2" value="" style="endArrow=none;html=1;rounded=0;entryX=0.5;entryY=1;entryDx=0;entryDy=0;exitX=0.5;exitY=0;exitDx=0;exitDy=0;" parent="1" source="uMU0NVJH7h4fjkHsvMXy-1" target="SLK3B0IBfcJ1VqEoQyuU-11" edge="1">
          <mxGeometry relative="1" as="geometry">
            <mxPoint x="280" y="390" as="sourcePoint" />
            <mxPoint x="440" y="400" as="targetPoint" />
          </mxGeometry>
        </mxCell>
        <mxCell id="uMU0NVJH7h4fjkHsvMXy-3" value="SL mua" style="ellipse;whiteSpace=wrap;html=1;align=center;" parent="1" vertex="1">
          <mxGeometry x="338" y="405" width="76" height="35" as="geometry" />
        </mxCell>
        <mxCell id="uMU0NVJH7h4fjkHsvMXy-7" value="" style="endArrow=none;html=1;rounded=0;exitX=0.5;exitY=0;exitDx=0;exitDy=0;entryX=0.25;entryY=1;entryDx=0;entryDy=0;" parent="1" source="uMU0NVJH7h4fjkHsvMXy-3" target="SLK3B0IBfcJ1VqEoQyuU-11" edge="1">
          <mxGeometry relative="1" as="geometry">
            <mxPoint x="270" y="340" as="sourcePoint" />
            <mxPoint x="430" y="340" as="targetPoint" />
          </mxGeometry>
        </mxCell>
      </root>
    </mxGraphModel>
  </diagram>
</mxfile>
